<?xml version="1.0" encoding="UTF-8"?>
<svg id="_レイヤー_1" data-name="レイヤー_1" xmlns="http://www.w3.org/2000/svg" viewBox="0 0 29.6 26.55">
  <defs>
    <style>
      .cls-1 {
        fill: #f5d11f;
      }

      .cls-2 {
        fill: #231815;
      }
    </style>
  </defs>
  <path class="cls-1" d="M13.76,0C6.16,0,0,6.16,0,13.76c0,5.78,3.56,10.71,8.61,12.75L18.91,1.01c-1.59-.64-3.33-1.01-5.15-1.01Z"/>
  <path class="cls-1" d="M20.99.04l-10.31,25.51c1.59.64,3.33,1.01,5.15,1.01,7.6,0,13.76-6.16,13.76-13.76C29.6,7.01,26.03,2.08,20.99.04Z"/>
  <path class="cls-2" d="M3.73,18.48v-10.45h2.77c.24,0,.49,0,.75.02.25.02.5.04.74.07.24.03.47.07.7.11.22.04.43.1.62.16.56.18,1.05.42,1.48.72.43.3.79.66,1.07,1.07.29.41.51.87.66,1.38s.22,1.06.22,1.65c0,.56-.06,1.09-.19,1.58s-.32.94-.57,1.35c-.26.41-.58.76-.96,1.07-.39.31-.85.56-1.38.76-.44.17-.95.29-1.51.38-.56.08-1.2.12-1.9.12h-2.48ZM6.44,16.88c1.12,0,1.99-.15,2.62-.46.56-.28.98-.68,1.27-1.2.29-.53.43-1.2.43-2.02,0-.43-.05-.81-.14-1.16s-.23-.65-.41-.92c-.18-.27-.39-.5-.64-.69-.25-.19-.54-.35-.86-.48-.3-.11-.63-.2-.99-.25-.36-.05-.77-.08-1.23-.08h-.84v7.25h.79Z"/>
  <path class="cls-2" d="M22.81,15.86h-3.94l-1.02,2.66h-2.04l4.15-10.45h1.75l4.15,10.45h-2.02l-1.02-2.66ZM20.83,10.58c-.37,1.09-.69,2.01-.98,2.74l-.36.93h2.7l-.36-.93c-.28-.74-.61-1.65-.98-2.74h-.03Z"/>
</svg>